<svg xmlns="http://www.w3.org/2000/svg" viewBox="0 0 140 230" width="140" height="230">
<g id="body" transform="translate(10 78)"><path d="M 50 126 L 48 146" fill="none" stroke="#2B211C" stroke-width="5"/><path d="M 70 126 L 72 146" fill="none" stroke="#2B211C" stroke-width="5"/><ellipse cx="46" cy="148" rx="8" ry="4" fill="#2B211C"/><ellipse cx="75" cy="148" rx="8" ry="4" fill="#2B211C"/><path d="M 34 100 L 86 100 L 92 128 L 28 128 Z" fill="#5E7A93" stroke="#2B211C" stroke-width="2.5"/><path d="M 44 4 Q 60 -2 76 4 L 98 112 Q 60 124 22 112 Z" fill="#A8322A" stroke="#2B211C" stroke-width="2.5"/><path d="M 60 8 L 60 108" fill="none" stroke="#7C2420" stroke-width="2"/></g><g id="head" transform="translate(32 4)"><path d="M 40 3 C 15 3 3 22 3 44 C 3 64 17 79 40 79 C 63 79 77 64 77 44 C 77 22 65 3 40 3 Z" fill="#A8322A" stroke="#2B211C" stroke-width="2.5"/><ellipse cx="43" cy="46" rx="25" ry="27" fill="#7C2420"/><path d="M 22 44 C 20 58 22 68 28 74 L 32 60 Z M 64 44 C 66 58 64 68 58 74 L 54 60 Z" fill="#6B4428" stroke="#2B211C" stroke-width="1.2"/><ellipse cx="43" cy="45" rx="21" ry="21" fill="#6B4428"/><ellipse cx="43" cy="49" rx="17" ry="18" fill="#F2D2B0" stroke="#2B211C" stroke-width="2"/><path d="M 25.5 46 C 26 31 36 27 45 27 C 55 27 62 34 60.5 46 C 55 39 49 37.5 42 38.5 C 36 39 30 41 25.5 46 Z" fill="#6B4428" stroke="#2B211C" stroke-width="1.2"/><circle cx="37.5" cy="50" r="2.5" fill="#2B211C"/><circle cx="49" cy="50" r="2.5" fill="#2B211C"/><circle cx="38.4" cy="49.1" r="0.9" fill="#F8F0DE"/><circle cx="49.9" cy="49.1" r="0.9" fill="#F8F0DE"/><ellipse cx="34.5" cy="56" rx="3.2" ry="2" fill="#EDB0A0"/><ellipse cx="52.5" cy="56" rx="3.2" ry="2" fill="#EDB0A0"/><path d="M 40 58 Q 43.5 61 47 58" fill="none" stroke="#9C3A40" stroke-width="1.5"/><path d="M 43 72 L 34 67 L 35 77 Z M 43 72 L 52 67 L 51 77 Z" fill="#A8322A" stroke="#2B211C" stroke-width="1.5"/><circle cx="43" cy="72" r="2.4" fill="#7C2420" stroke="#2B211C" stroke-width="1.2"/></g><g id="basket" transform="translate(76 142)"><path d="M 10 26 C 10 -4 50 -4 50 26" fill="none" stroke="#6E4C31" stroke-width="4"/><path d="M 4 24 L 56 24 L 50 54 L 10 54 Z" fill="#C99A45" stroke="#2B211C" stroke-width="2.5"/><path d="M 7 34 L 53 34 M 9 44 L 51 44" fill="none" stroke="#9C7433" stroke-width="2"/><path d="M 18 24 L 20 54 M 30 24 L 30 54 M 42 24 L 40 54" fill="none" stroke="#9C7433" stroke-width="1.5"/><path d="M 8 24 Q 30 12 52 24 Q 30 30 8 24 Z" fill="#A8322A" stroke="#2B211C" stroke-width="2"/><circle cx="22" cy="21" r="2" fill="#F8F0DE"/><circle cx="34" cy="19" r="2" fill="#F8F0DE"/><circle cx="44" cy="22" r="2" fill="#F8F0DE"/></g><g id="hand" transform="translate(0 0)"><circle cx="106" cy="144" r="6" fill="#F2D2B0" stroke="#2B211C" stroke-width="2.5"/></g>
</svg>
